<svg width="1036" height="516" viewBox="0 0 1036 516" fill="none" xmlns="http://www.w3.org/2000/svg">
<rect width="1021" height="516" rx="10" fill="white"/>
<path fill-rule="evenodd" clip-rule="evenodd" d="M620.283 41.0043C624.149 41.0043 627.283 39.4373 627.283 37.5043C627.283 35.5713 624.149 34.0043 620.283 34.0043C616.417 34.0043 613.283 35.5713 613.283 37.5043C613.283 39.4373 616.417 41.0043 620.283 41.0043Z" fill="#4339F2"/>
<path d="M636.335 43.0183L633.647 33.2043H634.907L637.021 41.6183L639.429 33.2043H640.731L643.069 41.6183L645.211 33.2043H646.471L643.727 43.0043H642.383L640.045 34.9123L637.651 43.0043L636.335 43.0183ZM649.411 43.1723C648.832 43.1723 648.351 43.0743 647.969 42.8783C647.586 42.6823 647.301 42.421 647.115 42.0943C646.928 41.7676 646.835 41.413 646.835 41.0303C646.835 40.321 647.105 39.775 647.647 39.3923C648.188 39.0096 648.925 38.8183 649.859 38.8183H651.735V38.7343C651.735 38.1276 651.576 37.6703 651.259 37.3623C650.941 37.045 650.517 36.8863 649.985 36.8863C649.527 36.8863 649.131 37.003 648.795 37.2363C648.468 37.4603 648.263 37.7916 648.179 38.2303H646.975C647.021 37.7263 647.189 37.3016 647.479 36.9563C647.777 36.611 648.146 36.3496 648.585 36.1723C649.023 35.9856 649.49 35.8923 649.985 35.8923C650.955 35.8923 651.683 36.1536 652.169 36.6763C652.663 37.1896 652.911 37.8756 652.911 38.7343V43.0043H651.861L651.791 41.7583C651.595 42.1503 651.305 42.4863 650.923 42.7663C650.549 43.037 650.045 43.1723 649.411 43.1723ZM649.593 42.1783C650.041 42.1783 650.423 42.0616 650.741 41.8283C651.067 41.595 651.315 41.2916 651.483 40.9183C651.651 40.545 651.735 40.153 651.735 39.7423V39.7283H649.957C649.266 39.7283 648.776 39.8496 648.487 40.0923C648.207 40.3256 648.067 40.6196 648.067 40.9743C648.067 41.3383 648.197 41.6323 648.459 41.8563C648.729 42.071 649.107 42.1783 649.593 42.1783ZM654.675 43.0043V32.9243H655.851V43.0043H654.675ZM657.779 43.0043V32.9243H658.955V43.0043H657.779ZM664.004 43.1723C663.341 43.1723 662.753 43.023 662.24 42.7243C661.727 42.4163 661.321 41.9916 661.022 41.4503C660.733 40.909 660.588 40.2696 660.588 39.5323C660.588 38.8043 660.733 38.1696 661.022 37.6283C661.311 37.0776 661.713 36.653 662.226 36.3543C662.749 36.0463 663.351 35.8923 664.032 35.8923C664.704 35.8923 665.283 36.0463 665.768 36.3543C666.263 36.653 666.641 37.0496 666.902 37.5443C667.163 38.039 667.294 38.571 667.294 39.1403C667.294 39.243 667.289 39.3456 667.28 39.4483C667.28 39.551 667.28 39.6676 667.28 39.7983H661.75C661.778 40.3303 661.899 40.7736 662.114 41.1283C662.338 41.4736 662.613 41.735 662.94 41.9123C663.276 42.0896 663.631 42.1783 664.004 42.1783C664.489 42.1783 664.895 42.0663 665.222 41.8423C665.549 41.6183 665.787 41.315 665.936 40.9323H667.098C666.911 41.5763 666.552 42.113 666.02 42.5423C665.497 42.9623 664.825 43.1723 664.004 43.1723ZM664.004 36.8863C663.444 36.8863 662.945 37.059 662.506 37.4043C662.077 37.7403 661.829 38.235 661.764 38.8883H666.132C666.104 38.263 665.889 37.773 665.488 37.4183C665.087 37.0636 664.592 36.8863 664.004 36.8863ZM671.364 43.0043C670.73 43.0043 670.23 42.8503 669.866 42.5423C669.502 42.2343 669.32 41.679 669.32 40.8763V37.0543H668.116V36.0603H669.32L669.474 34.3943H670.496V36.0603H672.54V37.0543H670.496V40.8763C670.496 41.315 670.585 41.6136 670.762 41.7723C670.94 41.9216 671.252 41.9963 671.7 41.9963H672.428V43.0043H671.364ZM680.105 43.0043V34.1703H677.179V33.2043H684.207V34.1703H681.281V43.0043H680.105ZM684.78 43.0043V36.0603H685.844L685.942 37.3903C686.157 36.933 686.484 36.569 686.922 36.2983C687.361 36.0276 687.902 35.8923 688.546 35.8923V37.1243H688.224C687.814 37.1243 687.436 37.199 687.09 37.3483C686.745 37.4883 686.47 37.731 686.264 38.0763C686.059 38.4216 685.956 38.8976 685.956 39.5043V43.0043H684.78ZM692.176 43.1723C691.598 43.1723 691.117 43.0743 690.734 42.8783C690.352 42.6823 690.067 42.421 689.88 42.0943C689.694 41.7676 689.6 41.413 689.6 41.0303C689.6 40.321 689.871 39.775 690.412 39.3923C690.954 39.0096 691.691 38.8183 692.624 38.8183H694.5V38.7343C694.5 38.1276 694.342 37.6703 694.024 37.3623C693.707 37.045 693.282 36.8863 692.75 36.8863C692.293 36.8863 691.896 37.003 691.56 37.2363C691.234 37.4603 691.028 37.7916 690.944 38.2303H689.74C689.787 37.7263 689.955 37.3016 690.244 36.9563C690.543 36.611 690.912 36.3496 691.35 36.1723C691.789 35.9856 692.256 35.8923 692.75 35.8923C693.721 35.8923 694.449 36.1536 694.934 36.6763C695.429 37.1896 695.676 37.8756 695.676 38.7343V43.0043H694.626L694.556 41.7583C694.36 42.1503 694.071 42.4863 693.688 42.7663C693.315 43.037 692.811 43.1723 692.176 43.1723ZM692.358 42.1783C692.806 42.1783 693.189 42.0616 693.506 41.8283C693.833 41.595 694.08 41.2916 694.248 40.9183C694.416 40.545 694.5 40.153 694.5 39.7423V39.7283H692.722C692.032 39.7283 691.542 39.8496 691.252 40.0923C690.972 40.3256 690.832 40.6196 690.832 40.9743C690.832 41.3383 690.963 41.6323 691.224 41.8563C691.495 42.071 691.873 42.1783 692.358 42.1783ZM697.441 43.0043V36.0603H698.505L698.575 37.3063C698.799 36.8676 699.121 36.5223 699.541 36.2703C699.961 36.0183 700.437 35.8923 700.969 35.8923C701.79 35.8923 702.443 36.1443 702.929 36.6483C703.423 37.143 703.671 37.9083 703.671 38.9443V43.0043H702.495V39.0703C702.495 37.6236 701.897 36.9003 700.703 36.9003C700.105 36.9003 699.606 37.1196 699.205 37.5583C698.813 37.9876 698.617 38.6036 698.617 39.4063V43.0043H697.441ZM708.112 43.1723C707.282 43.1723 706.591 42.9623 706.04 42.5423C705.49 42.1223 705.168 41.553 705.074 40.8343H706.278C706.353 41.1983 706.544 41.5156 706.852 41.7863C707.17 42.0476 707.594 42.1783 708.126 42.1783C708.621 42.1783 708.985 42.0756 709.218 41.8703C709.452 41.6556 709.568 41.4036 709.568 41.1143C709.568 40.6943 709.414 40.4143 709.106 40.2743C708.808 40.1343 708.383 40.0083 707.832 39.8963C707.459 39.8216 707.086 39.7143 706.712 39.5743C706.339 39.4343 706.026 39.2383 705.774 38.9863C705.522 38.725 705.396 38.3843 705.396 37.9643C705.396 37.3576 705.62 36.863 706.068 36.4803C706.526 36.0883 707.142 35.8923 707.916 35.8923C708.654 35.8923 709.256 36.079 709.722 36.4523C710.198 36.8163 710.474 37.339 710.548 38.0203H709.386C709.34 37.6656 709.186 37.3903 708.924 37.1943C708.672 36.989 708.332 36.8863 707.902 36.8863C707.482 36.8863 707.156 36.975 706.922 37.1523C706.698 37.3296 706.586 37.563 706.586 37.8523C706.586 38.1323 706.731 38.3516 707.02 38.5103C707.319 38.669 707.72 38.8043 708.224 38.9163C708.654 39.0096 709.06 39.1263 709.442 39.2663C709.834 39.397 710.152 39.5976 710.394 39.8683C710.646 40.1296 710.772 40.5123 710.772 41.0163C710.782 41.6416 710.544 42.1596 710.058 42.5703C709.582 42.9716 708.934 43.1723 708.112 43.1723ZM714.762 43.1723C714.184 43.1723 713.703 43.0743 713.32 42.8783C712.938 42.6823 712.653 42.421 712.466 42.0943C712.28 41.7676 712.186 41.413 712.186 41.0303C712.186 40.321 712.457 39.775 712.998 39.3923C713.54 39.0096 714.277 38.8183 715.21 38.8183H717.086V38.7343C717.086 38.1276 716.928 37.6703 716.61 37.3623C716.293 37.045 715.868 36.8863 715.336 36.8863C714.879 36.8863 714.482 37.003 714.146 37.2363C713.82 37.4603 713.614 37.7916 713.53 38.2303H712.326C712.373 37.7263 712.541 37.3016 712.83 36.9563C713.129 36.611 713.498 36.3496 713.936 36.1723C714.375 35.9856 714.842 35.8923 715.336 35.8923C716.307 35.8923 717.035 36.1536 717.52 36.6763C718.015 37.1896 718.262 37.8756 718.262 38.7343V43.0043H717.212L717.142 41.7583C716.946 42.1503 716.657 42.4863 716.274 42.7663C715.901 43.037 715.397 43.1723 714.762 43.1723ZM714.944 42.1783C715.392 42.1783 715.775 42.0616 716.092 41.8283C716.419 41.595 716.666 41.2916 716.834 40.9183C717.002 40.545 717.086 40.153 717.086 39.7423V39.7283H715.308C714.618 39.7283 714.128 39.8496 713.838 40.0923C713.558 40.3256 713.418 40.6196 713.418 40.9743C713.418 41.3383 713.549 41.6323 713.81 41.8563C714.081 42.071 714.459 42.1783 714.944 42.1783ZM723.219 43.1723C722.556 43.1723 721.959 43.023 721.427 42.7243C720.904 42.4163 720.489 41.9916 720.181 41.4503C719.882 40.8996 719.733 40.2603 719.733 39.5323C719.733 38.8043 719.882 38.1696 720.181 37.6283C720.489 37.0776 720.904 36.653 721.427 36.3543C721.959 36.0463 722.556 35.8923 723.219 35.8923C724.04 35.8923 724.731 36.107 725.291 36.5363C725.86 36.9656 726.219 37.5396 726.369 38.2583H725.165C725.071 37.829 724.843 37.4976 724.479 37.2643C724.115 37.0216 723.69 36.9003 723.205 36.9003C722.813 36.9003 722.444 36.9983 722.099 37.1943C721.753 37.3903 721.473 37.6843 721.259 38.0763C721.044 38.4683 720.937 38.9536 720.937 39.5323C720.937 40.111 721.044 40.5963 721.259 40.9883C721.473 41.3803 721.753 41.679 722.099 41.8843C722.444 42.0803 722.813 42.1783 723.205 42.1783C723.69 42.1783 724.115 42.0616 724.479 41.8283C724.843 41.5856 725.071 41.245 725.165 40.8063H726.369C726.229 41.5063 725.874 42.0756 725.305 42.5143C724.735 42.953 724.04 43.1723 723.219 43.1723ZM730.564 43.0043C729.929 43.0043 729.43 42.8503 729.066 42.5423C728.702 42.2343 728.52 41.679 728.52 40.8763V37.0543H727.316V36.0603H728.52L728.674 34.3943H729.696V36.0603H731.74V37.0543H729.696V40.8763C729.696 41.315 729.784 41.6136 729.962 41.7723C730.139 41.9216 730.452 41.9963 730.9 41.9963H731.628V43.0043H730.564ZM733.948 34.5203C733.714 34.5203 733.518 34.4456 733.36 34.2963C733.21 34.1376 733.136 33.9416 733.136 33.7083C733.136 33.4843 733.21 33.2976 733.36 33.1483C733.518 32.999 733.714 32.9243 733.948 32.9243C734.172 32.9243 734.363 32.999 734.522 33.1483C734.68 33.2976 734.76 33.4843 734.76 33.7083C734.76 33.9416 734.68 34.1376 734.522 34.2963C734.363 34.4456 734.172 34.5203 733.948 34.5203ZM733.36 43.0043V36.0603H734.536V43.0043H733.36ZM739.747 43.1723C739.094 43.1723 738.506 43.023 737.983 42.7243C737.461 42.4256 737.045 42.0056 736.737 41.4643C736.439 40.9136 736.289 40.2696 736.289 39.5323C736.289 38.795 736.443 38.1556 736.751 37.6143C737.059 37.0636 737.475 36.639 737.997 36.3403C738.529 36.0416 739.122 35.8923 739.775 35.8923C740.429 35.8923 741.017 36.0416 741.539 36.3403C742.062 36.639 742.473 37.0636 742.771 37.6143C743.079 38.1556 743.233 38.795 743.233 39.5323C743.233 40.2696 743.079 40.9136 742.771 41.4643C742.463 42.0056 742.043 42.4256 741.511 42.7243C740.989 43.023 740.401 43.1723 739.747 43.1723ZM739.747 42.1643C740.149 42.1643 740.522 42.0663 740.867 41.8703C741.213 41.6743 741.493 41.3803 741.707 40.9883C741.922 40.5963 742.029 40.111 742.029 39.5323C742.029 38.9536 741.922 38.4683 741.707 38.0763C741.502 37.6843 741.227 37.3903 740.881 37.1943C740.536 36.9983 740.167 36.9003 739.775 36.9003C739.374 36.9003 739.001 36.9983 738.655 37.1943C738.31 37.3903 738.03 37.6843 737.815 38.0763C737.601 38.4683 737.493 38.9536 737.493 39.5323C737.493 40.111 737.601 40.5963 737.815 40.9883C738.03 41.3803 738.305 41.6743 738.641 41.8703C738.987 42.0663 739.355 42.1643 739.747 42.1643ZM744.868 43.0043V36.0603H745.932L746.002 37.3063C746.226 36.8676 746.548 36.5223 746.968 36.2703C747.388 36.0183 747.864 35.8923 748.396 35.8923C749.218 35.8923 749.871 36.1443 750.356 36.6483C750.851 37.143 751.098 37.9083 751.098 38.9443V43.0043H749.922V39.0703C749.922 37.6236 749.325 36.9003 748.13 36.9003C747.533 36.9003 747.034 37.1196 746.632 37.5583C746.24 37.9876 746.044 38.6036 746.044 39.4063V43.0043H744.868ZM755.54 43.1723C754.709 43.1723 754.019 42.9623 753.468 42.5423C752.917 42.1223 752.595 41.553 752.502 40.8343H753.706C753.781 41.1983 753.972 41.5156 754.28 41.7863C754.597 42.0476 755.022 42.1783 755.554 42.1783C756.049 42.1783 756.413 42.0756 756.646 41.8703C756.879 41.6556 756.996 41.4036 756.996 41.1143C756.996 40.6943 756.842 40.4143 756.534 40.2743C756.235 40.1343 755.811 40.0083 755.26 39.8963C754.887 39.8216 754.513 39.7143 754.14 39.5743C753.767 39.4343 753.454 39.2383 753.202 38.9863C752.95 38.725 752.824 38.3843 752.824 37.9643C752.824 37.3576 753.048 36.863 753.496 36.4803C753.953 36.0883 754.569 35.8923 755.344 35.8923C756.081 35.8923 756.683 36.079 757.15 36.4523C757.626 36.8163 757.901 37.339 757.976 38.0203H756.814C756.767 37.6656 756.613 37.3903 756.352 37.1943C756.1 36.989 755.759 36.8863 755.33 36.8863C754.91 36.8863 754.583 36.975 754.35 37.1523C754.126 37.3296 754.014 37.563 754.014 37.8523C754.014 38.1323 754.159 38.3516 754.448 38.5103C754.747 38.669 755.148 38.8043 755.652 38.9163C756.081 39.0096 756.487 39.1263 756.87 39.2663C757.262 39.397 757.579 39.5976 757.822 39.8683C758.074 40.1296 758.2 40.5123 758.2 41.0163C758.209 41.6416 757.971 42.1596 757.486 42.5703C757.01 42.9716 756.361 43.1723 755.54 43.1723Z" fill="black"/>
<path fill-rule="evenodd" clip-rule="evenodd" d="M806.094 41.0043C809.96 41.0043 813.094 39.4373 813.094 37.5043C813.094 35.5713 809.96 34.0043 806.094 34.0043C802.228 34.0043 799.094 35.5713 799.094 37.5043C799.094 39.4373 802.228 41.0043 806.094 41.0043Z" fill="#FF3A29"/>
<path d="M819.514 43.0043L823.126 33.2043H824.372L827.97 43.0043H826.724L825.828 40.4843H821.656L820.746 43.0043H819.514ZM822.006 39.5323H825.478L823.742 34.6883L822.006 39.5323ZM830.071 34.5203C829.838 34.5203 829.642 34.4456 829.483 34.2963C829.334 34.1376 829.259 33.9416 829.259 33.7083C829.259 33.4843 829.334 33.2976 829.483 33.1483C829.642 32.999 829.838 32.9243 830.071 32.9243C830.295 32.9243 830.486 32.999 830.645 33.1483C830.804 33.2976 830.883 33.4843 830.883 33.7083C830.883 33.9416 830.804 34.1376 830.645 34.2963C830.486 34.4456 830.295 34.5203 830.071 34.5203ZM829.483 43.0043V36.0603H830.659V43.0043H829.483ZM832.707 43.0043V36.0603H833.771L833.869 37.3903C834.083 36.933 834.41 36.569 834.849 36.2983C835.287 36.0276 835.829 35.8923 836.473 35.8923V37.1243H836.151C835.74 37.1243 835.362 37.199 835.017 37.3483C834.671 37.4883 834.396 37.731 834.191 38.0763C833.985 38.4216 833.883 38.8976 833.883 39.5043V43.0043H832.707ZM840.537 43.0043C839.902 43.0043 839.403 42.8503 839.039 42.5423C838.675 42.2343 838.493 41.679 838.493 40.8763V37.0543H837.289V36.0603H838.493L838.647 34.3943H839.669V36.0603H841.713V37.0543H839.669V40.8763C839.669 41.315 839.757 41.6136 839.935 41.7723C840.112 41.9216 840.425 41.9963 840.873 41.9963H841.601V43.0043H840.537ZM843.921 34.5203C843.687 34.5203 843.491 34.4456 843.333 34.2963C843.183 34.1376 843.109 33.9416 843.109 33.7083C843.109 33.4843 843.183 33.2976 843.333 33.1483C843.491 32.999 843.687 32.9243 843.921 32.9243C844.145 32.9243 844.336 32.999 844.495 33.1483C844.653 33.2976 844.733 33.4843 844.733 33.7083C844.733 33.9416 844.653 34.1376 844.495 34.2963C844.336 34.4456 844.145 34.5203 843.921 34.5203ZM843.333 43.0043V36.0603H844.509V43.0043H843.333ZM846.556 43.0043V36.0603H847.62L847.704 37.0683C847.928 36.695 848.227 36.4056 848.6 36.2003C848.974 35.995 849.394 35.8923 849.86 35.8923C850.411 35.8923 850.882 36.0043 851.274 36.2283C851.676 36.4523 851.984 36.793 852.198 37.2503C852.441 36.8303 852.772 36.499 853.192 36.2563C853.622 36.0136 854.084 35.8923 854.578 35.8923C855.409 35.8923 856.072 36.1443 856.566 36.6483C857.061 37.143 857.308 37.9083 857.308 38.9443V43.0043H856.146V39.0703C856.146 38.3516 856.002 37.8103 855.712 37.4463C855.423 37.0823 855.008 36.9003 854.466 36.9003C853.906 36.9003 853.44 37.1196 853.066 37.5583C852.702 37.9876 852.52 38.6036 852.52 39.4063V43.0043H851.344V39.0703C851.344 38.3516 851.2 37.8103 850.91 37.4463C850.621 37.0823 850.206 36.9003 849.664 36.9003C849.114 36.9003 848.652 37.1196 848.278 37.5583C847.914 37.9876 847.732 38.6036 847.732 39.4063V43.0043H846.556ZM862.202 43.1723C861.539 43.1723 860.951 43.023 860.438 42.7243C859.924 42.4163 859.518 41.9916 859.22 41.4503C858.93 40.909 858.786 40.2696 858.786 39.5323C858.786 38.8043 858.93 38.1696 859.22 37.6283C859.509 37.0776 859.91 36.653 860.424 36.3543C860.946 36.0463 861.548 35.8923 862.23 35.8923C862.902 35.8923 863.48 36.0463 863.966 36.3543C864.46 36.653 864.838 37.0496 865.1 37.5443C865.361 38.039 865.492 38.571 865.492 39.1403C865.492 39.243 865.487 39.3456 865.478 39.4483C865.478 39.551 865.478 39.6676 865.478 39.7983H859.948C859.976 40.3303 860.097 40.7736 860.312 41.1283C860.536 41.4736 860.811 41.735 861.138 41.9123C861.474 42.0896 861.828 42.1783 862.202 42.1783C862.687 42.1783 863.093 42.0663 863.42 41.8423C863.746 41.6183 863.984 41.315 864.134 40.9323H865.296C865.109 41.5763 864.75 42.113 864.218 42.5423C863.695 42.9623 863.023 43.1723 862.202 43.1723ZM862.202 36.8863C861.642 36.8863 861.142 37.059 860.704 37.4043C860.274 37.7403 860.027 38.235 859.962 38.8883H864.33C864.302 38.263 864.087 37.773 863.686 37.4183C863.284 37.0636 862.79 36.8863 862.202 36.8863ZM866.476 44.3343L869.99 32.3083H871.152L867.638 44.3343H866.476ZM873.382 43.0043V33.2043H876.392C878.119 33.2043 879.388 33.643 880.2 34.5203C881.022 35.3976 881.432 36.6016 881.432 38.1323C881.432 39.635 881.022 40.825 880.2 41.7023C879.388 42.5703 878.119 43.0043 876.392 43.0043H873.382ZM874.558 42.0243H876.364C877.316 42.0243 878.072 41.8703 878.632 41.5623C879.202 41.245 879.608 40.797 879.85 40.2183C880.093 39.6303 880.214 38.935 880.214 38.1323C880.214 37.311 880.093 36.6063 879.85 36.0183C879.608 35.4303 879.202 34.9776 878.632 34.6603C878.072 34.343 877.316 34.1843 876.364 34.1843H874.558V42.0243ZM885.37 43.1723C884.792 43.1723 884.311 43.0743 883.928 42.8783C883.546 42.6823 883.261 42.421 883.074 42.0943C882.888 41.7676 882.794 41.413 882.794 41.0303C882.794 40.321 883.065 39.775 883.606 39.3923C884.148 39.0096 884.885 38.8183 885.818 38.8183H887.694V38.7343C887.694 38.1276 887.536 37.6703 887.218 37.3623C886.901 37.045 886.476 36.8863 885.944 36.8863C885.487 36.8863 885.09 37.003 884.754 37.2363C884.428 37.4603 884.222 37.7916 884.138 38.2303H882.934C882.981 37.7263 883.149 37.3016 883.438 36.9563C883.737 36.611 884.106 36.3496 884.544 36.1723C884.983 35.9856 885.45 35.8923 885.944 35.8923C886.915 35.8923 887.643 36.1536 888.128 36.6763C888.623 37.1896 888.87 37.8756 888.87 38.7343V43.0043H887.82L887.75 41.7583C887.554 42.1503 887.265 42.4863 886.882 42.7663C886.509 43.037 886.005 43.1723 885.37 43.1723ZM885.552 42.1783C886 42.1783 886.383 42.0616 886.7 41.8283C887.027 41.595 887.274 41.2916 887.442 40.9183C887.61 40.545 887.694 40.153 887.694 39.7423V39.7283H885.916C885.226 39.7283 884.736 39.8496 884.446 40.0923C884.166 40.3256 884.026 40.6196 884.026 40.9743C884.026 41.3383 884.157 41.6323 884.418 41.8563C884.689 42.071 885.067 42.1783 885.552 42.1783ZM893.187 43.0043C892.552 43.0043 892.053 42.8503 891.689 42.5423C891.325 42.2343 891.143 41.679 891.143 40.8763V37.0543H889.939V36.0603H891.143L891.297 34.3943H892.319V36.0603H894.363V37.0543H892.319V40.8763C892.319 41.315 892.408 41.6136 892.585 41.7723C892.762 41.9216 893.075 41.9963 893.523 41.9963H894.251V43.0043H893.187ZM898.167 43.1723C897.588 43.1723 897.108 43.0743 896.725 42.8783C896.342 42.6823 896.058 42.421 895.871 42.0943C895.684 41.7676 895.591 41.413 895.591 41.0303C895.591 40.321 895.862 39.775 896.403 39.3923C896.944 39.0096 897.682 38.8183 898.615 38.8183H900.491V38.7343C900.491 38.1276 900.332 37.6703 900.015 37.3623C899.698 37.045 899.273 36.8863 898.741 36.8863C898.284 36.8863 897.887 37.003 897.551 37.2363C897.224 37.4603 897.019 37.7916 896.935 38.2303H895.731C895.778 37.7263 895.946 37.3016 896.235 36.9563C896.534 36.611 896.902 36.3496 897.341 36.1723C897.78 35.9856 898.246 35.8923 898.741 35.8923C899.712 35.8923 900.44 36.1536 900.925 36.6763C901.42 37.1896 901.667 37.8756 901.667 38.7343V43.0043H900.617L900.547 41.7583C900.351 42.1503 900.062 42.4863 899.679 42.7663C899.306 43.037 898.802 43.1723 898.167 43.1723ZM898.349 42.1783C898.797 42.1783 899.18 42.0616 899.497 41.8283C899.824 41.595 900.071 41.2916 900.239 40.9183C900.407 40.545 900.491 40.153 900.491 39.7423V39.7283H898.713C898.022 39.7283 897.532 39.8496 897.243 40.0923C896.963 40.3256 896.823 40.6196 896.823 40.9743C896.823 41.3383 896.954 41.6323 897.215 41.8563C897.486 42.071 897.864 42.1783 898.349 42.1783ZM909.502 43.0043V34.1703H906.576V33.2043H913.604V34.1703H910.678V43.0043H909.502ZM914.177 43.0043V36.0603H915.241L915.339 37.3903C915.554 36.933 915.881 36.569 916.319 36.2983C916.758 36.0276 917.299 35.8923 917.943 35.8923V37.1243H917.621C917.211 37.1243 916.833 37.199 916.487 37.3483C916.142 37.4883 915.867 37.731 915.661 38.0763C915.456 38.4216 915.353 38.8976 915.353 39.5043V43.0043H914.177ZM921.573 43.1723C920.995 43.1723 920.514 43.0743 920.131 42.8783C919.749 42.6823 919.464 42.421 919.277 42.0943C919.091 41.7676 918.997 41.413 918.997 41.0303C918.997 40.321 919.268 39.775 919.809 39.3923C920.351 39.0096 921.088 38.8183 922.021 38.8183H923.897V38.7343C923.897 38.1276 923.739 37.6703 923.421 37.3623C923.104 37.045 922.679 36.8863 922.147 36.8863C921.69 36.8863 921.293 37.003 920.957 37.2363C920.631 37.4603 920.425 37.7916 920.341 38.2303H919.137C919.184 37.7263 919.352 37.3016 919.641 36.9563C919.94 36.611 920.309 36.3496 920.747 36.1723C921.186 35.9856 921.653 35.8923 922.147 35.8923C923.118 35.8923 923.846 36.1536 924.331 36.6763C924.826 37.1896 925.073 37.8756 925.073 38.7343V43.0043H924.023L923.953 41.7583C923.757 42.1503 923.468 42.4863 923.085 42.7663C922.712 43.037 922.208 43.1723 921.573 43.1723ZM921.755 42.1783C922.203 42.1783 922.586 42.0616 922.903 41.8283C923.23 41.595 923.477 41.2916 923.645 40.9183C923.813 40.545 923.897 40.153 923.897 39.7423V39.7283H922.119C921.429 39.7283 920.939 39.8496 920.649 40.0923C920.369 40.3256 920.229 40.6196 920.229 40.9743C920.229 41.3383 920.36 41.6323 920.621 41.8563C920.892 42.071 921.27 42.1783 921.755 42.1783ZM926.838 43.0043V36.0603H927.902L927.972 37.3063C928.196 36.8676 928.518 36.5223 928.938 36.2703C929.358 36.0183 929.834 35.8923 930.366 35.8923C931.187 35.8923 931.84 36.1443 932.326 36.6483C932.82 37.143 933.068 37.9083 933.068 38.9443V43.0043H931.892V39.0703C931.892 37.6236 931.294 36.9003 930.1 36.9003C929.502 36.9003 929.003 37.1196 928.602 37.5583C928.21 37.9876 928.014 38.6036 928.014 39.4063V43.0043H926.838ZM937.509 43.1723C936.679 43.1723 935.988 42.9623 935.437 42.5423C934.887 42.1223 934.565 41.553 934.471 40.8343H935.675C935.75 41.1983 935.941 41.5156 936.249 41.7863C936.567 42.0476 936.991 42.1783 937.523 42.1783C938.018 42.1783 938.382 42.0756 938.615 41.8703C938.849 41.6556 938.965 41.4036 938.965 41.1143C938.965 40.6943 938.811 40.4143 938.503 40.2743C938.205 40.1343 937.78 40.0083 937.229 39.8963C936.856 39.8216 936.483 39.7143 936.109 39.5743C935.736 39.4343 935.423 39.2383 935.171 38.9863C934.919 38.725 934.793 38.3843 934.793 37.9643C934.793 37.3576 935.017 36.863 935.465 36.4803C935.923 36.0883 936.539 35.8923 937.313 35.8923C938.051 35.8923 938.653 36.079 939.119 36.4523C939.595 36.8163 939.871 37.339 939.945 38.0203H938.783C938.737 37.6656 938.583 37.3903 938.321 37.1943C938.069 36.989 937.729 36.8863 937.299 36.8863C936.879 36.8863 936.553 36.975 936.319 37.1523C936.095 37.3296 935.983 37.563 935.983 37.8523C935.983 38.1323 936.128 38.3516 936.417 38.5103C936.716 38.669 937.117 38.8043 937.621 38.9163C938.051 39.0096 938.457 39.1263 938.839 39.2663C939.231 39.397 939.549 39.5976 939.791 39.8683C940.043 40.1296 940.169 40.5123 940.169 41.0163C940.179 41.6416 939.941 42.1596 939.455 42.5703C938.979 42.9716 938.331 43.1723 937.509 43.1723ZM944.159 43.1723C943.581 43.1723 943.1 43.0743 942.717 42.8783C942.335 42.6823 942.05 42.421 941.863 42.0943C941.677 41.7676 941.583 41.413 941.583 41.0303C941.583 40.321 941.854 39.775 942.395 39.3923C942.937 39.0096 943.674 38.8183 944.607 38.8183H946.483V38.7343C946.483 38.1276 946.325 37.6703 946.007 37.3623C945.69 37.045 945.265 36.8863 944.733 36.8863C944.276 36.8863 943.879 37.003 943.543 37.2363C943.217 37.4603 943.011 37.7916 942.927 38.2303H941.723C941.77 37.7263 941.938 37.3016 942.227 36.9563C942.526 36.611 942.895 36.3496 943.333 36.1723C943.772 35.9856 944.239 35.8923 944.733 35.8923C945.704 35.8923 946.432 36.1536 946.917 36.6763C947.412 37.1896 947.659 37.8756 947.659 38.7343V43.0043H946.609L946.539 41.7583C946.343 42.1503 946.054 42.4863 945.671 42.7663C945.298 43.037 944.794 43.1723 944.159 43.1723ZM944.341 42.1783C944.789 42.1783 945.172 42.0616 945.489 41.8283C945.816 41.595 946.063 41.2916 946.231 40.9183C946.399 40.545 946.483 40.153 946.483 39.7423V39.7283H944.705C944.015 39.7283 943.525 39.8496 943.235 40.0923C942.955 40.3256 942.815 40.6196 942.815 40.9743C942.815 41.3383 942.946 41.6323 943.207 41.8563C943.478 42.071 943.856 42.1783 944.341 42.1783ZM952.616 43.1723C951.953 43.1723 951.356 43.023 950.824 42.7243C950.301 42.4163 949.886 41.9916 949.578 41.4503C949.279 40.8996 949.13 40.2603 949.13 39.5323C949.13 38.8043 949.279 38.1696 949.578 37.6283C949.886 37.0776 950.301 36.653 950.824 36.3543C951.356 36.0463 951.953 35.8923 952.616 35.8923C953.437 35.8923 954.128 36.107 954.688 36.5363C955.257 36.9656 955.616 37.5396 955.766 38.2583H954.562C954.468 37.829 954.24 37.4976 953.876 37.2643C953.512 37.0216 953.087 36.9003 952.602 36.9003C952.21 36.9003 951.841 36.9983 951.496 37.1943C951.15 37.3903 950.87 37.6843 950.656 38.0763C950.441 38.4683 950.334 38.9536 950.334 39.5323C950.334 40.111 950.441 40.5963 950.656 40.9883C950.87 41.3803 951.15 41.679 951.496 41.8843C951.841 42.0803 952.21 42.1783 952.602 42.1783C953.087 42.1783 953.512 42.0616 953.876 41.8283C954.24 41.5856 954.468 41.245 954.562 40.8063H955.766C955.626 41.5063 955.271 42.0756 954.702 42.5143C954.132 42.953 953.437 43.1723 952.616 43.1723ZM959.96 43.0043C959.326 43.0043 958.826 42.8503 958.462 42.5423C958.098 42.2343 957.916 41.679 957.916 40.8763V37.0543H956.712V36.0603H957.916L958.07 34.3943H959.092V36.0603H961.136V37.0543H959.092V40.8763C959.092 41.315 959.181 41.6136 959.358 41.7723C959.536 41.9216 959.848 41.9963 960.296 41.9963H961.024V43.0043H959.96ZM963.345 34.5203C963.111 34.5203 962.915 34.4456 962.757 34.2963C962.607 34.1376 962.533 33.9416 962.533 33.7083C962.533 33.4843 962.607 33.2976 962.757 33.1483C962.915 32.999 963.111 32.9243 963.345 32.9243C963.569 32.9243 963.76 32.999 963.919 33.1483C964.077 33.2976 964.157 33.4843 964.157 33.7083C964.157 33.9416 964.077 34.1376 963.919 34.2963C963.76 34.4456 963.569 34.5203 963.345 34.5203ZM962.757 43.0043V36.0603H963.933V43.0043H962.757ZM969.144 43.1723C968.491 43.1723 967.903 43.023 967.38 42.7243C966.857 42.4256 966.442 42.0056 966.134 41.4643C965.835 40.9136 965.686 40.2696 965.686 39.5323C965.686 38.795 965.84 38.1556 966.148 37.6143C966.456 37.0636 966.871 36.639 967.394 36.3403C967.926 36.0416 968.519 35.8923 969.172 35.8923C969.825 35.8923 970.413 36.0416 970.936 36.3403C971.459 36.639 971.869 37.0636 972.168 37.6143C972.476 38.1556 972.63 38.795 972.63 39.5323C972.63 40.2696 972.476 40.9136 972.168 41.4643C971.86 42.0056 971.44 42.4256 970.908 42.7243C970.385 43.023 969.797 43.1723 969.144 43.1723ZM969.144 42.1643C969.545 42.1643 969.919 42.0663 970.264 41.8703C970.609 41.6743 970.889 41.3803 971.104 40.9883C971.319 40.5963 971.426 40.111 971.426 39.5323C971.426 38.9536 971.319 38.4683 971.104 38.0763C970.899 37.6843 970.623 37.3903 970.278 37.1943C969.933 36.9983 969.564 36.9003 969.172 36.9003C968.771 36.9003 968.397 36.9983 968.052 37.1943C967.707 37.3903 967.427 37.6843 967.212 38.0763C966.997 38.4683 966.89 38.9536 966.89 39.5323C966.89 40.111 966.997 40.5963 967.212 40.9883C967.427 41.3803 967.702 41.6743 968.038 41.8703C968.383 42.0663 968.752 42.1643 969.144 42.1643ZM974.265 43.0043V36.0603H975.329L975.399 37.3063C975.623 36.8676 975.945 36.5223 976.365 36.2703C976.785 36.0183 977.261 35.8923 977.793 35.8923C978.615 35.8923 979.268 36.1443 979.753 36.6483C980.248 37.143 980.495 37.9083 980.495 38.9443V43.0043H979.319V39.0703C979.319 37.6236 978.722 36.9003 977.527 36.9003C976.93 36.9003 976.431 37.1196 976.029 37.5583C975.637 37.9876 975.441 38.6036 975.441 39.4063V43.0043H974.265ZM984.937 43.1723C984.106 43.1723 983.416 42.9623 982.865 42.5423C982.314 42.1223 981.992 41.553 981.899 40.8343H983.103C983.178 41.1983 983.369 41.5156 983.677 41.7863C983.994 42.0476 984.419 42.1783 984.951 42.1783C985.446 42.1783 985.81 42.0756 986.043 41.8703C986.276 41.6556 986.393 41.4036 986.393 41.1143C986.393 40.6943 986.239 40.4143 985.931 40.2743C985.632 40.1343 985.208 40.0083 984.657 39.8963C984.284 39.8216 983.91 39.7143 983.537 39.5743C983.164 39.4343 982.851 39.2383 982.599 38.9863C982.347 38.725 982.221 38.3843 982.221 37.9643C982.221 37.3576 982.445 36.863 982.893 36.4803C983.35 36.0883 983.966 35.8923 984.741 35.8923C985.478 35.8923 986.08 36.079 986.547 36.4523C987.023 36.8163 987.298 37.339 987.373 38.0203H986.211C986.164 37.6656 986.01 37.3903 985.749 37.1943C985.497 36.989 985.156 36.8863 984.727 36.8863C984.307 36.8863 983.98 36.975 983.747 37.1523C983.523 37.3296 983.411 37.563 983.411 37.8523C983.411 38.1323 983.556 38.3516 983.845 38.5103C984.144 38.669 984.545 38.8043 985.049 38.9163C985.478 39.0096 985.884 39.1263 986.267 39.2663C986.659 39.397 986.976 39.5976 987.219 39.8683C987.471 40.1296 987.597 40.5123 987.597 41.0163C987.606 41.6416 987.368 42.1596 986.883 42.5703C986.407 42.9716 985.758 43.1723 984.937 43.1723Z" fill="black"/>
<g opacity="0.1">
<path fill-rule="evenodd" clip-rule="evenodd" d="M64.5295 65.643C64.5295 65.4627 64.6758 65.3165 64.8561 65.3165H991.994C992.174 65.3165 992.32 65.4627 992.32 65.643C992.32 65.8234 992.174 65.9696 991.994 65.9696H64.8561C64.6758 65.9696 64.5295 65.8234 64.5295 65.643Z" fill="black"/>
<path fill-rule="evenodd" clip-rule="evenodd" d="M64.5295 129.653C64.5295 129.473 64.6758 129.327 64.8561 129.327H991.994C992.174 129.327 992.32 129.473 992.32 129.653C992.32 129.834 992.174 129.98 991.994 129.98H64.8561C64.6758 129.98 64.5295 129.834 64.5295 129.653Z" fill="black"/>
<path fill-rule="evenodd" clip-rule="evenodd" d="M64.5295 193.663C64.5295 193.483 64.6758 193.337 64.8561 193.337H991.994C992.174 193.337 992.32 193.483 992.32 193.663C992.32 193.844 992.174 193.99 991.994 193.99H64.8561C64.6758 193.99 64.5295 193.844 64.5295 193.663Z" fill="black"/>
<path fill-rule="evenodd" clip-rule="evenodd" d="M64.5295 257.673C64.5295 257.493 64.6758 257.347 64.8561 257.347H991.994C992.174 257.347 992.32 257.493 992.32 257.673C992.32 257.854 992.174 258 991.994 258H64.8561C64.6758 258 64.5295 257.854 64.5295 257.673Z" fill="black"/>
<path fill-rule="evenodd" clip-rule="evenodd" d="M64.5295 321.684C64.5295 321.503 64.6758 321.357 64.8561 321.357H991.994C992.174 321.357 992.32 321.503 992.32 321.684C992.32 321.864 992.174 322.01 991.994 322.01H64.8561C64.6758 322.01 64.5295 321.864 64.5295 321.684Z" fill="black"/>
<path fill-rule="evenodd" clip-rule="evenodd" d="M64.5295 385.694C64.5295 385.513 64.6758 385.367 64.8561 385.367H991.994C992.174 385.367 992.32 385.513 992.32 385.694C992.32 385.874 992.174 386.02 991.994 386.02H64.8561C64.6758 386.02 64.5295 385.874 64.5295 385.694Z" fill="black"/>
<path fill-rule="evenodd" clip-rule="evenodd" d="M64.5295 449.704C64.5295 449.523 64.6758 449.377 64.8561 449.377H991.994C992.174 449.377 992.32 449.523 992.32 449.704C992.32 449.884 992.174 450.03 991.994 450.03H64.8561C64.6758 450.03 64.5295 449.884 64.5295 449.704Z" fill="black"/>
<path fill-rule="evenodd" clip-rule="evenodd" d="M64.8881 65.3165C65.0861 65.3165 65.2466 65.477 65.2466 65.675V449.672C65.2466 449.87 65.0861 450.03 64.8881 450.03C64.6901 450.03 64.5296 449.87 64.5296 449.672V65.675C64.5296 65.477 64.6901 65.3165 64.8881 65.3165Z" fill="black"/>
<path fill-rule="evenodd" clip-rule="evenodd" d="M142.323 65.3165C142.521 65.3165 142.682 65.477 142.682 65.675V449.672C142.682 449.87 142.521 450.03 142.323 450.03C142.125 450.03 141.965 449.87 141.965 449.672V65.675C141.965 65.477 142.125 65.3165 142.323 65.3165Z" fill="black"/>
<path fill-rule="evenodd" clip-rule="evenodd" d="M219.759 65.3165C219.957 65.3165 220.117 65.4769 220.117 65.6749V449.672C220.117 449.87 219.957 450.03 219.759 450.03C219.561 450.03 219.4 449.87 219.4 449.672V65.675C219.4 65.477 219.561 65.3165 219.759 65.3165Z" fill="black"/>
<path fill-rule="evenodd" clip-rule="evenodd" d="M296.477 65.3165C296.675 65.3165 296.836 65.477 296.836 65.6749V449.672C296.836 449.87 296.675 450.03 296.477 450.03C296.279 450.03 296.119 449.87 296.119 449.672V65.675C296.119 65.477 296.279 65.3165 296.477 65.3165Z" fill="black"/>
<path fill-rule="evenodd" clip-rule="evenodd" d="M373.913 65.3165C374.111 65.3165 374.271 65.477 374.271 65.675V449.672C374.271 449.87 374.111 450.03 373.913 450.03C373.715 450.03 373.554 449.87 373.554 449.672V65.675C373.554 65.477 373.715 65.3165 373.913 65.3165Z" fill="black"/>
<path fill-rule="evenodd" clip-rule="evenodd" d="M451.348 65.3165C451.546 65.3165 451.707 65.4769 451.707 65.6749V449.672C451.707 449.87 451.546 450.03 451.348 450.03C451.15 450.03 450.99 449.87 450.99 449.672V65.675C450.99 65.477 451.15 65.3165 451.348 65.3165Z" fill="black"/>
<path fill-rule="evenodd" clip-rule="evenodd" d="M528.783 65.3165C528.981 65.3165 529.142 65.477 529.142 65.6749V449.672C529.142 449.87 528.981 450.03 528.783 450.03C528.585 450.03 528.425 449.87 528.425 449.672V65.675C528.425 65.477 528.585 65.3165 528.783 65.3165Z" fill="black"/>
<path fill-rule="evenodd" clip-rule="evenodd" d="M605.502 65.3165C605.7 65.3165 605.861 65.4769 605.861 65.6749V449.672C605.861 449.87 605.7 450.03 605.502 450.03C605.304 450.03 605.144 449.87 605.144 449.672V65.6749C605.144 65.4769 605.304 65.3165 605.502 65.3165Z" fill="black"/>
<path fill-rule="evenodd" clip-rule="evenodd" d="M682.937 65.3165C683.135 65.3165 683.296 65.4769 683.296 65.6749V449.672C683.296 449.87 683.135 450.03 682.937 450.03C682.739 450.03 682.579 449.87 682.579 449.672V65.6749C682.579 65.4769 682.739 65.3165 682.937 65.3165Z" fill="black"/>
<path fill-rule="evenodd" clip-rule="evenodd" d="M760.373 65.3165C760.571 65.3165 760.731 65.477 760.731 65.675V449.672C760.731 449.87 760.571 450.03 760.373 450.03C760.175 450.03 760.014 449.87 760.014 449.672V65.675C760.014 65.477 760.175 65.3165 760.373 65.3165Z" fill="black"/>
<path fill-rule="evenodd" clip-rule="evenodd" d="M837.808 65.3165C838.006 65.3165 838.167 65.477 838.167 65.675V449.672C838.167 449.87 838.006 450.03 837.808 450.03C837.61 450.03 837.45 449.87 837.45 449.672V65.675C837.45 65.477 837.61 65.3165 837.808 65.3165Z" fill="black"/>
<path fill-rule="evenodd" clip-rule="evenodd" d="M914.527 65.3165C914.725 65.3165 914.885 65.477 914.885 65.6749V449.672C914.885 449.87 914.725 450.03 914.527 450.03C914.329 450.03 914.168 449.87 914.168 449.672V65.675C914.168 65.477 914.329 65.3165 914.527 65.3165Z" fill="black"/>
<path fill-rule="evenodd" clip-rule="evenodd" d="M991.962 65.3165C992.16 65.3165 992.32 65.477 992.32 65.675V449.672C992.32 449.87 992.16 450.03 991.962 450.03C991.764 450.03 991.603 449.87 991.603 449.672V65.675C991.603 65.477 991.764 65.3165 991.962 65.3165Z" fill="black"/>
</g>
<g clip-path="url(#clip0)">
<path opacity="0.4" d="M66.5315 481.625V473.141L64.9495 473.491V472.679L66.9235 471.825H67.7215V481.625H66.5315ZM72.8512 482.955L76.3652 470.929H77.5272L74.0132 482.955H72.8512ZM83.6351 481.625V473.141L82.0531 473.491V472.679L84.0271 471.825H84.8251V481.625H83.6351ZM86.7397 481.625V480.799C87.4023 480.277 88.0277 479.749 88.6157 479.217C89.213 478.676 89.7403 478.144 90.1977 477.621C90.6643 477.099 91.0283 476.585 91.2897 476.081C91.5603 475.577 91.6957 475.092 91.6957 474.625C91.6957 474.28 91.635 473.958 91.5137 473.659C91.4017 473.361 91.215 473.123 90.9537 472.945C90.6923 472.759 90.3377 472.665 89.8897 472.665C89.4603 472.665 89.101 472.763 88.8117 472.959C88.5223 473.146 88.303 473.398 88.1537 473.715C88.0137 474.033 87.9437 474.373 87.9437 474.737H86.8097C86.8097 474.093 86.945 473.543 87.2157 473.085C87.4863 472.619 87.855 472.264 88.3217 472.021C88.7883 471.779 89.3157 471.657 89.9037 471.657C90.7717 471.657 91.481 471.905 92.0317 472.399C92.5917 472.885 92.8717 473.613 92.8717 474.583C92.8717 475.162 92.727 475.736 92.4377 476.305C92.1483 476.865 91.7797 477.411 91.3317 477.943C90.8837 478.466 90.403 478.956 89.8897 479.413C89.3857 479.871 88.9143 480.281 88.4757 480.645H93.2077V481.625H86.7397Z" fill="black"/>
<path opacity="0.4" d="M142.847 481.625V480.799C143.51 480.277 144.135 479.749 144.723 479.217C145.32 478.676 145.848 478.144 146.305 477.621C146.772 477.099 147.136 476.585 147.397 476.081C147.668 475.577 147.803 475.092 147.803 474.625C147.803 474.28 147.742 473.958 147.621 473.659C147.509 473.361 147.322 473.123 147.061 472.945C146.8 472.759 146.445 472.665 145.997 472.665C145.568 472.665 145.208 472.763 144.919 472.959C144.63 473.146 144.41 473.398 144.261 473.715C144.121 474.033 144.051 474.373 144.051 474.737H142.917C142.917 474.093 143.052 473.543 143.323 473.085C143.594 472.619 143.962 472.264 144.429 472.021C144.896 471.779 145.423 471.657 146.011 471.657C146.879 471.657 147.588 471.905 148.139 472.399C148.699 472.885 148.979 473.613 148.979 474.583C148.979 475.162 148.834 475.736 148.545 476.305C148.256 476.865 147.887 477.411 147.439 477.943C146.991 478.466 146.51 478.956 145.997 479.413C145.493 479.871 145.022 480.281 144.583 480.645H149.315V481.625H142.847ZM154.074 482.955L157.588 470.929H158.75L155.236 482.955H154.074ZM164.857 481.625V473.141L163.275 473.491V472.679L165.249 471.825H166.047V481.625H164.857ZM167.962 481.625V480.799C168.625 480.277 169.25 479.749 169.838 479.217C170.435 478.676 170.963 478.144 171.42 477.621C171.887 477.099 172.251 476.585 172.512 476.081C172.783 475.577 172.918 475.092 172.918 474.625C172.918 474.28 172.857 473.958 172.736 473.659C172.624 473.361 172.437 473.123 172.176 472.945C171.915 472.759 171.56 472.665 171.112 472.665C170.683 472.665 170.323 472.763 170.034 472.959C169.745 473.146 169.525 473.398 169.376 473.715C169.236 474.033 169.166 474.373 169.166 474.737H168.032C168.032 474.093 168.167 473.543 168.438 473.085C168.709 472.619 169.077 472.264 169.544 472.021C170.011 471.779 170.538 471.657 171.126 471.657C171.994 471.657 172.703 471.905 173.254 472.399C173.814 472.885 174.094 473.613 174.094 474.583C174.094 475.162 173.949 475.736 173.66 476.305C173.371 476.865 173.002 477.411 172.554 477.943C172.106 478.466 171.625 478.956 171.112 479.413C170.608 479.871 170.137 480.281 169.698 480.645H174.43V481.625H167.962Z" fill="black"/>
<path opacity="0.4" d="M224.205 481.793C223.58 481.793 223.015 481.681 222.511 481.457C222.007 481.224 221.601 480.879 221.293 480.421C220.995 479.964 220.836 479.395 220.817 478.713H222.007C222.017 479.273 222.213 479.759 222.595 480.169C222.978 480.571 223.515 480.771 224.205 480.771C224.896 480.771 225.414 480.58 225.759 480.197C226.114 479.815 226.291 479.353 226.291 478.811C226.291 478.354 226.179 477.981 225.955 477.691C225.741 477.402 225.447 477.187 225.073 477.047C224.709 476.907 224.308 476.837 223.869 476.837H223.141V475.843H223.869C224.504 475.843 224.999 475.699 225.353 475.409C225.717 475.12 225.899 474.714 225.899 474.191C225.899 473.753 225.755 473.393 225.465 473.113C225.185 472.824 224.765 472.679 224.205 472.679C223.664 472.679 223.23 472.843 222.903 473.169C222.577 473.487 222.395 473.888 222.357 474.373H221.167C221.195 473.841 221.335 473.37 221.587 472.959C221.849 472.549 222.203 472.231 222.651 472.007C223.099 471.774 223.617 471.657 224.205 471.657C224.84 471.657 225.367 471.769 225.787 471.993C226.217 472.217 226.539 472.516 226.753 472.889C226.977 473.263 227.089 473.673 227.089 474.121C227.089 474.616 226.954 475.069 226.683 475.479C226.413 475.881 226.007 476.151 225.465 476.291C226.044 476.413 226.525 476.688 226.907 477.117C227.29 477.547 227.481 478.111 227.481 478.811C227.481 479.353 227.355 479.852 227.103 480.309C226.861 480.757 226.497 481.117 226.011 481.387C225.526 481.658 224.924 481.793 224.205 481.793ZM232.445 482.955L235.959 470.929H237.121L233.607 482.955H232.445ZM243.229 481.625V473.141L241.647 473.491V472.679L243.621 471.825H244.419V481.625H243.229ZM246.333 481.625V480.799C246.996 480.277 247.621 479.749 248.209 479.217C248.807 478.676 249.334 478.144 249.791 477.621C250.258 477.099 250.622 476.585 250.883 476.081C251.154 475.577 251.289 475.092 251.289 474.625C251.289 474.28 251.229 473.958 251.107 473.659C250.995 473.361 250.809 473.123 250.547 472.945C250.286 472.759 249.931 472.665 249.483 472.665C249.054 472.665 248.695 472.763 248.405 472.959C248.116 473.146 247.897 473.398 247.747 473.715C247.607 474.033 247.537 474.373 247.537 474.737H246.403C246.403 474.093 246.539 473.543 246.809 473.085C247.08 472.619 247.449 472.264 247.915 472.021C248.382 471.779 248.909 471.657 249.497 471.657C250.365 471.657 251.075 471.905 251.625 472.399C252.185 472.885 252.465 473.613 252.465 474.583C252.465 475.162 252.321 475.736 252.031 476.305C251.742 476.865 251.373 477.411 250.925 477.943C250.477 478.466 249.997 478.956 249.483 479.413C248.979 479.871 248.508 480.281 248.069 480.645H252.801V481.625H246.333Z" fill="black"/>
<path opacity="0.4" d="M303.744 481.625V479.525H298.774V478.615L303.534 471.825H304.906V478.489H306.362V479.525H304.906V481.625H303.744ZM300.076 478.489H303.8V473.127L300.076 478.489ZM310.843 482.955L314.357 470.929H315.519L312.005 482.955H310.843ZM321.627 481.625V473.141L320.045 473.491V472.679L322.019 471.825H322.817V481.625H321.627ZM324.732 481.625V480.799C325.395 480.277 326.02 479.749 326.608 479.217C327.205 478.676 327.733 478.144 328.19 477.621C328.657 477.099 329.021 476.585 329.282 476.081C329.553 475.577 329.688 475.092 329.688 474.625C329.688 474.28 329.627 473.958 329.506 473.659C329.394 473.361 329.207 473.123 328.946 472.945C328.685 472.759 328.33 472.665 327.882 472.665C327.453 472.665 327.093 472.763 326.804 472.959C326.515 473.146 326.295 473.398 326.146 473.715C326.006 474.033 325.936 474.373 325.936 474.737H324.802C324.802 474.093 324.937 473.543 325.208 473.085C325.479 472.619 325.847 472.264 326.314 472.021C326.781 471.779 327.308 471.657 327.896 471.657C328.764 471.657 329.473 471.905 330.024 472.399C330.584 472.885 330.864 473.613 330.864 474.583C330.864 475.162 330.719 475.736 330.43 476.305C330.141 476.865 329.772 477.411 329.324 477.943C328.876 478.466 328.395 478.956 327.882 479.413C327.378 479.871 326.907 480.281 326.468 480.645H331.2V481.625H324.732Z" fill="black"/>
<path opacity="0.4" d="M380.79 481.793C380.118 481.793 379.535 481.672 379.04 481.429C378.545 481.187 378.149 480.855 377.85 480.435C377.561 480.006 377.383 479.521 377.318 478.979H378.466C378.578 479.521 378.839 479.959 379.25 480.295C379.661 480.622 380.179 480.785 380.804 480.785C381.271 480.785 381.672 480.678 382.008 480.463C382.344 480.239 382.601 479.941 382.778 479.567C382.965 479.194 383.058 478.779 383.058 478.321C383.058 477.593 382.853 477.005 382.442 476.557C382.031 476.109 381.499 475.885 380.846 475.885C380.305 475.885 379.843 476.007 379.46 476.249C379.077 476.492 378.797 476.809 378.62 477.201H377.5L378.34 471.825H383.478V472.847H379.25L378.676 475.829C378.9 475.559 379.208 475.335 379.6 475.157C380.001 474.98 380.459 474.891 380.972 474.891C381.616 474.891 382.176 475.041 382.652 475.339C383.137 475.638 383.515 476.044 383.786 476.557C384.057 477.071 384.192 477.654 384.192 478.307C384.192 478.933 384.057 479.511 383.786 480.043C383.525 480.575 383.137 481 382.624 481.317C382.12 481.635 381.509 481.793 380.79 481.793ZM389.091 482.955L392.605 470.929H393.767L390.253 482.955H389.091ZM399.875 481.625V473.141L398.293 473.491V472.679L400.267 471.825H401.065V481.625H399.875ZM402.98 481.625V480.799C403.643 480.277 404.268 479.749 404.856 479.217C405.453 478.676 405.981 478.144 406.438 477.621C406.905 477.099 407.269 476.585 407.53 476.081C407.801 475.577 407.936 475.092 407.936 474.625C407.936 474.28 407.875 473.958 407.754 473.659C407.642 473.361 407.455 473.123 407.194 472.945C406.933 472.759 406.578 472.665 406.13 472.665C405.701 472.665 405.341 472.763 405.052 472.959C404.763 473.146 404.543 473.398 404.394 473.715C404.254 474.033 404.184 474.373 404.184 474.737H403.05C403.05 474.093 403.185 473.543 403.456 473.085C403.727 472.619 404.095 472.264 404.562 472.021C405.029 471.779 405.556 471.657 406.144 471.657C407.012 471.657 407.721 471.905 408.272 472.399C408.832 472.885 409.112 473.613 409.112 474.583C409.112 475.162 408.967 475.736 408.678 476.305C408.389 476.865 408.02 477.411 407.572 477.943C407.124 478.466 406.643 478.956 406.13 479.413C405.626 479.871 405.155 480.281 404.716 480.645H409.448V481.625H402.98Z" fill="black"/>
<path opacity="0.4" d="M459.138 481.793C458.429 481.793 457.832 481.663 457.346 481.401C456.861 481.131 456.469 480.771 456.17 480.323C455.881 479.875 455.666 479.376 455.526 478.825C455.396 478.265 455.33 477.696 455.33 477.117C455.33 476.035 455.48 475.087 455.778 474.275C456.077 473.454 456.506 472.815 457.066 472.357C457.636 471.891 458.322 471.657 459.124 471.657C459.74 471.657 460.268 471.779 460.706 472.021C461.145 472.264 461.49 472.591 461.742 473.001C462.004 473.403 462.167 473.851 462.232 474.345H461.14C461.038 473.813 460.809 473.403 460.454 473.113C460.1 472.824 459.652 472.679 459.11 472.679C458.373 472.679 457.752 473.029 457.248 473.729C456.754 474.42 456.488 475.503 456.45 476.977C456.674 476.539 457.029 476.161 457.514 475.843C458.009 475.517 458.602 475.353 459.292 475.353C459.852 475.353 460.375 475.484 460.86 475.745C461.355 476.007 461.756 476.375 462.064 476.851C462.372 477.318 462.526 477.869 462.526 478.503C462.526 479.054 462.391 479.581 462.12 480.085C461.85 480.589 461.458 481 460.944 481.317C460.44 481.635 459.838 481.793 459.138 481.793ZM459.054 480.757C459.493 480.757 459.885 480.664 460.23 480.477C460.576 480.291 460.846 480.034 461.042 479.707C461.238 479.371 461.336 478.989 461.336 478.559C461.336 477.897 461.117 477.369 460.678 476.977C460.249 476.576 459.708 476.375 459.054 476.375C458.616 476.375 458.224 476.478 457.878 476.683C457.533 476.879 457.258 477.145 457.052 477.481C456.856 477.817 456.758 478.181 456.758 478.573C456.758 478.993 456.856 479.371 457.052 479.707C457.258 480.034 457.533 480.291 457.878 480.477C458.224 480.664 458.616 480.757 459.054 480.757ZM467.49 482.955L471.004 470.929H472.166L468.652 482.955H467.49ZM478.274 481.625V473.141L476.692 473.491V472.679L478.666 471.825H479.464V481.625H478.274ZM481.378 481.625V480.799C482.041 480.277 482.666 479.749 483.254 479.217C483.852 478.676 484.379 478.144 484.836 477.621C485.303 477.099 485.667 476.585 485.928 476.081C486.199 475.577 486.334 475.092 486.334 474.625C486.334 474.28 486.274 473.958 486.152 473.659C486.04 473.361 485.854 473.123 485.592 472.945C485.331 472.759 484.976 472.665 484.528 472.665C484.099 472.665 483.74 472.763 483.45 472.959C483.161 473.146 482.942 473.398 482.792 473.715C482.652 474.033 482.582 474.373 482.582 474.737H481.448C481.448 474.093 481.584 473.543 481.854 473.085C482.125 472.619 482.494 472.264 482.96 472.021C483.427 471.779 483.954 471.657 484.542 471.657C485.41 471.657 486.12 471.905 486.67 472.399C487.23 472.885 487.51 473.613 487.51 474.583C487.51 475.162 487.366 475.736 487.076 476.305C486.787 476.865 486.418 477.411 485.97 477.943C485.522 478.466 485.042 478.956 484.528 479.413C484.024 479.871 483.553 480.281 483.114 480.645H487.846V481.625H481.378Z" fill="black"/>
<path opacity="0.4" d="M534.575 481.625L538.467 472.833H533.091V471.825H539.671V472.707L535.821 481.625H534.575ZM544.289 482.955L547.803 470.929H548.965L545.451 482.955H544.289ZM555.073 481.625V473.141L553.491 473.491V472.679L555.465 471.825H556.263V481.625H555.073ZM558.177 481.625V480.799C558.84 480.277 559.465 479.749 560.053 479.217C560.65 478.676 561.178 478.144 561.635 477.621C562.102 477.099 562.466 476.585 562.727 476.081C562.998 475.577 563.133 475.092 563.133 474.625C563.133 474.28 563.072 473.958 562.951 473.659C562.839 473.361 562.652 473.123 562.391 472.945C562.13 472.759 561.775 472.665 561.327 472.665C560.898 472.665 560.538 472.763 560.249 472.959C559.96 473.146 559.74 473.398 559.591 473.715C559.451 474.033 559.381 474.373 559.381 474.737H558.247C558.247 474.093 558.382 473.543 558.653 473.085C558.924 472.619 559.292 472.264 559.759 472.021C560.226 471.779 560.753 471.657 561.341 471.657C562.209 471.657 562.918 471.905 563.469 472.399C564.029 472.885 564.309 473.613 564.309 474.583C564.309 475.162 564.164 475.736 563.875 476.305C563.586 476.865 563.217 477.411 562.769 477.943C562.321 478.466 561.84 478.956 561.327 479.413C560.823 479.871 560.352 480.281 559.913 480.645H564.645V481.625H558.177Z" fill="black"/>
<path opacity="0.4" d="M615.149 481.793C614.505 481.793 613.927 481.677 613.413 481.443C612.9 481.201 612.494 480.869 612.195 480.449C611.906 480.02 611.761 479.525 611.761 478.965C611.761 478.368 611.934 477.831 612.279 477.355C612.634 476.879 613.101 476.562 613.679 476.403C613.147 476.226 612.737 475.941 612.447 475.549C612.158 475.157 612.013 474.728 612.013 474.261C612.013 473.785 612.139 473.351 612.391 472.959C612.643 472.558 613.003 472.241 613.469 472.007C613.936 471.774 614.496 471.657 615.149 471.657C615.803 471.657 616.363 471.774 616.829 472.007C617.296 472.241 617.655 472.558 617.907 472.959C618.159 473.351 618.285 473.785 618.285 474.261C618.285 474.719 618.141 475.148 617.851 475.549C617.562 475.941 617.151 476.226 616.619 476.403C617.198 476.562 617.66 476.879 618.005 477.355C618.36 477.831 618.537 478.368 618.537 478.965C618.537 479.525 618.388 480.02 618.089 480.449C617.8 480.869 617.399 481.201 616.885 481.443C616.372 481.677 615.793 481.793 615.149 481.793ZM615.149 475.983C615.747 475.983 616.218 475.834 616.563 475.535C616.918 475.227 617.095 474.826 617.095 474.331C617.095 473.781 616.923 473.365 616.577 473.085C616.232 472.805 615.756 472.665 615.149 472.665C614.543 472.665 614.067 472.805 613.721 473.085C613.385 473.365 613.217 473.781 613.217 474.331C613.217 474.826 613.39 475.227 613.735 475.535C614.081 475.834 614.552 475.983 615.149 475.983ZM615.149 480.757C615.887 480.757 616.437 480.589 616.801 480.253C617.175 479.908 617.361 479.455 617.361 478.895C617.361 478.261 617.161 477.78 616.759 477.453C616.358 477.127 615.821 476.963 615.149 476.963C614.477 476.963 613.941 477.127 613.539 477.453C613.138 477.78 612.937 478.261 612.937 478.895C612.937 479.455 613.119 479.908 613.483 480.253C613.857 480.589 614.412 480.757 615.149 480.757ZM623.521 482.955L627.035 470.929H628.197L624.683 482.955H623.521ZM634.305 481.625V473.141L632.723 473.491V472.679L634.697 471.825H635.495V481.625H634.305ZM637.41 481.625V480.799C638.072 480.277 638.698 479.749 639.286 479.217C639.883 478.676 640.41 478.144 640.868 477.621C641.334 477.099 641.698 476.585 641.96 476.081C642.23 475.577 642.366 475.092 642.366 474.625C642.366 474.28 642.305 473.958 642.184 473.659C642.072 473.361 641.885 473.123 641.624 472.945C641.362 472.759 641.008 472.665 640.56 472.665C640.13 472.665 639.771 472.763 639.482 472.959C639.192 473.146 638.973 473.398 638.824 473.715C638.684 474.033 638.614 474.373 638.614 474.737H637.48C637.48 474.093 637.615 473.543 637.886 473.085C638.156 472.619 638.525 472.264 638.992 472.021C639.458 471.779 639.986 471.657 640.574 471.657C641.442 471.657 642.151 471.905 642.702 472.399C643.262 472.885 643.542 473.613 643.542 474.583C643.542 475.162 643.397 475.736 643.108 476.305C642.818 476.865 642.45 477.411 642.002 477.943C641.554 478.466 641.073 478.956 640.56 479.413C640.056 479.871 639.584 480.281 639.146 480.645H643.878V481.625H637.41Z" fill="black"/>
<path opacity="0.4" d="M693.302 481.793C692.686 481.793 692.158 481.672 691.72 481.429C691.281 481.187 690.931 480.865 690.67 480.463C690.418 480.053 690.264 479.6 690.208 479.105H691.3C691.393 479.637 691.617 480.048 691.972 480.337C692.326 480.627 692.774 480.771 693.316 480.771C694.062 480.771 694.683 480.426 695.178 479.735C695.672 479.035 695.938 477.948 695.976 476.473C695.752 476.912 695.392 477.295 694.898 477.621C694.412 477.939 693.824 478.097 693.134 478.097C692.583 478.097 692.06 477.967 691.566 477.705C691.071 477.444 690.67 477.08 690.362 476.613C690.054 476.137 689.9 475.582 689.9 474.947C689.9 474.397 690.035 473.869 690.306 473.365C690.586 472.861 690.978 472.451 691.482 472.133C691.986 471.816 692.588 471.657 693.288 471.657C693.997 471.657 694.594 471.793 695.08 472.063C695.565 472.325 695.952 472.679 696.242 473.127C696.54 473.575 696.755 474.079 696.886 474.639C697.026 475.19 697.096 475.755 697.096 476.333C697.096 477.416 696.946 478.368 696.648 479.189C696.349 480.001 695.915 480.641 695.346 481.107C694.786 481.565 694.104 481.793 693.302 481.793ZM693.372 477.075C693.81 477.075 694.202 476.977 694.548 476.781C694.893 476.576 695.168 476.305 695.374 475.969C695.579 475.633 695.682 475.269 695.682 474.877C695.682 474.457 695.579 474.084 695.374 473.757C695.168 473.421 694.893 473.16 694.548 472.973C694.202 472.787 693.81 472.693 693.372 472.693C692.933 472.693 692.541 472.787 692.196 472.973C691.85 473.16 691.58 473.421 691.384 473.757C691.188 474.084 691.09 474.462 691.09 474.891C691.09 475.554 691.304 476.086 691.734 476.487C692.172 476.879 692.718 477.075 693.372 477.075ZM701.947 482.955L705.461 470.929H706.623L703.109 482.955H701.947ZM712.731 481.625V473.141L711.149 473.491V472.679L713.123 471.825H713.921V481.625H712.731ZM715.836 481.625V480.799C716.498 480.277 717.124 479.749 717.712 479.217C718.309 478.676 718.836 478.144 719.294 477.621C719.76 477.099 720.124 476.585 720.386 476.081C720.656 475.577 720.792 475.092 720.792 474.625C720.792 474.28 720.731 473.958 720.61 473.659C720.498 473.361 720.311 473.123 720.05 472.945C719.788 472.759 719.434 472.665 718.986 472.665C718.556 472.665 718.197 472.763 717.908 472.959C717.618 473.146 717.399 473.398 717.25 473.715C717.11 474.033 717.04 474.373 717.04 474.737H715.906C715.906 474.093 716.041 473.543 716.312 473.085C716.582 472.619 716.951 472.264 717.418 472.021C717.884 471.779 718.412 471.657 719 471.657C719.868 471.657 720.577 471.905 721.128 472.399C721.688 472.885 721.968 473.613 721.968 474.583C721.968 475.162 721.823 475.736 721.534 476.305C721.244 476.865 720.876 477.411 720.428 477.943C719.98 478.466 719.499 478.956 718.986 479.413C718.482 479.871 718.01 480.281 717.572 480.645H722.304V481.625H715.836Z" fill="black"/>
<path opacity="0.4" d="M769.186 481.625V473.141L767.604 473.491V472.679L769.578 471.825H770.376V481.625H769.186ZM776.267 481.793C775.399 481.793 774.647 481.583 774.013 481.163C773.387 480.734 772.907 480.141 772.571 479.385C772.235 478.62 772.067 477.733 772.067 476.725C772.067 475.717 772.235 474.835 772.571 474.079C772.907 473.314 773.387 472.721 774.013 472.301C774.647 471.872 775.399 471.657 776.267 471.657C777.135 471.657 777.881 471.872 778.507 472.301C779.132 472.721 779.613 473.314 779.949 474.079C780.285 474.835 780.453 475.717 780.453 476.725C780.453 477.733 780.285 478.62 779.949 479.385C779.613 480.141 779.132 480.734 778.507 481.163C777.881 481.583 777.135 481.793 776.267 481.793ZM776.267 480.757C776.836 480.757 777.345 480.599 777.793 480.281C778.25 479.955 778.605 479.493 778.857 478.895C779.118 478.289 779.249 477.565 779.249 476.725C779.249 475.885 779.118 475.167 778.857 474.569C778.605 473.972 778.25 473.515 777.793 473.197C777.345 472.871 776.836 472.707 776.267 472.707C775.688 472.707 775.175 472.871 774.727 473.197C774.279 473.515 773.924 473.972 773.663 474.569C773.401 475.167 773.271 475.885 773.271 476.725C773.271 477.565 773.401 478.289 773.663 478.895C773.924 479.493 774.279 479.955 774.727 480.281C775.175 480.599 775.688 480.757 776.267 480.757ZM785.213 482.955L788.727 470.929H789.889L786.375 482.955H785.213ZM795.997 481.625V473.141L794.415 473.491V472.679L796.389 471.825H797.187V481.625H795.997ZM799.101 481.625V480.799C799.764 480.277 800.389 479.749 800.977 479.217C801.575 478.676 802.102 478.144 802.559 477.621C803.026 477.099 803.39 476.585 803.651 476.081C803.922 475.577 804.057 475.092 804.057 474.625C804.057 474.28 803.997 473.958 803.875 473.659C803.763 473.361 803.577 473.123 803.315 472.945C803.054 472.759 802.699 472.665 802.251 472.665C801.822 472.665 801.463 472.763 801.173 472.959C800.884 473.146 800.665 473.398 800.515 473.715C800.375 474.033 800.305 474.373 800.305 474.737H799.171C799.171 474.093 799.307 473.543 799.577 473.085C799.848 472.619 800.217 472.264 800.683 472.021C801.15 471.779 801.677 471.657 802.265 471.657C803.133 471.657 803.843 471.905 804.393 472.399C804.953 472.885 805.233 473.613 805.233 474.583C805.233 475.162 805.089 475.736 804.799 476.305C804.51 476.865 804.141 477.411 803.693 477.943C803.245 478.466 802.765 478.956 802.251 479.413C801.747 479.871 801.276 480.281 800.837 480.645H805.569V481.625H799.101Z" fill="black"/>
<path opacity="0.4" d="M847.338 481.625V473.141L845.756 473.491V472.679L847.73 471.825H848.528V481.625H847.338ZM851.563 481.625V473.141L849.981 473.491V472.679L851.955 471.825H852.753V481.625H851.563ZM857.883 482.955L861.397 470.929H862.559L859.045 482.955H857.883ZM868.667 481.625V473.141L867.085 473.491V472.679L869.059 471.825H869.857V481.625H868.667ZM871.771 481.625V480.799C872.434 480.277 873.059 479.749 873.647 479.217C874.244 478.676 874.772 478.144 875.229 477.621C875.696 477.099 876.06 476.585 876.321 476.081C876.592 475.577 876.727 475.092 876.727 474.625C876.727 474.28 876.666 473.958 876.545 473.659C876.433 473.361 876.246 473.123 875.985 472.945C875.724 472.759 875.369 472.665 874.921 472.665C874.492 472.665 874.132 472.763 873.843 472.959C873.554 473.146 873.334 473.398 873.185 473.715C873.045 474.033 872.975 474.373 872.975 474.737H871.841C871.841 474.093 871.976 473.543 872.247 473.085C872.518 472.619 872.886 472.264 873.353 472.021C873.82 471.779 874.347 471.657 874.935 471.657C875.803 471.657 876.512 471.905 877.063 472.399C877.623 472.885 877.903 473.613 877.903 474.583C877.903 475.162 877.758 475.736 877.469 476.305C877.18 476.865 876.811 477.411 876.363 477.943C875.915 478.466 875.434 478.956 874.921 479.413C874.417 479.871 873.946 480.281 873.507 480.645H878.239V481.625H871.771Z" fill="black"/>
<path opacity="0.4" d="M925.491 481.625V473.141L923.909 473.491V472.679L925.883 471.825H926.681V481.625H925.491ZM928.595 481.625V480.799C929.258 480.277 929.883 479.749 930.471 479.217C931.069 478.676 931.596 478.144 932.053 477.621C932.52 477.099 932.884 476.585 933.145 476.081C933.416 475.577 933.551 475.092 933.551 474.625C933.551 474.28 933.491 473.958 933.369 473.659C933.257 473.361 933.071 473.123 932.809 472.945C932.548 472.759 932.193 472.665 931.745 472.665C931.316 472.665 930.957 472.763 930.667 472.959C930.378 473.146 930.159 473.398 930.009 473.715C929.869 474.033 929.799 474.373 929.799 474.737H928.665C928.665 474.093 928.801 473.543 929.071 473.085C929.342 472.619 929.711 472.264 930.177 472.021C930.644 471.779 931.171 471.657 931.759 471.657C932.627 471.657 933.337 471.905 933.887 472.399C934.447 472.885 934.727 473.613 934.727 474.583C934.727 475.162 934.583 475.736 934.293 476.305C934.004 476.865 933.635 477.411 933.187 477.943C932.739 478.466 932.259 478.956 931.745 479.413C931.241 479.871 930.77 480.281 930.331 480.645H935.063V481.625H928.595ZM939.822 482.955L943.336 470.929H944.498L940.984 482.955H939.822ZM925.491 501.625V493.141L923.909 493.491V492.679L925.883 491.825H926.681V501.625H925.491ZM928.595 501.625V500.799C929.258 500.277 929.883 499.749 930.471 499.217C931.069 498.676 931.596 498.144 932.053 497.621C932.52 497.099 932.884 496.585 933.145 496.081C933.416 495.577 933.551 495.092 933.551 494.625C933.551 494.28 933.491 493.958 933.369 493.659C933.257 493.361 933.071 493.123 932.809 492.945C932.548 492.759 932.193 492.665 931.745 492.665C931.316 492.665 930.957 492.763 930.667 492.959C930.378 493.146 930.159 493.398 930.009 493.715C929.869 494.033 929.799 494.373 929.799 494.737H928.665C928.665 494.093 928.801 493.543 929.071 493.085C929.342 492.619 929.711 492.264 930.177 492.021C930.644 491.779 931.171 491.657 931.759 491.657C932.627 491.657 933.337 491.905 933.887 492.399C934.447 492.885 934.727 493.613 934.727 494.583C934.727 495.162 934.583 495.736 934.293 496.305C934.004 496.865 933.635 497.411 933.187 497.943C932.739 498.466 932.259 498.956 931.745 499.413C931.241 499.871 930.77 500.281 930.331 500.645H935.063V501.625H928.595Z" fill="black"/>
</g>
<path d="M65.2463 449.377L142.682 412.147H220.117H296.477L374.271 357.608L450.989 390.592L528.783 258L605.48 281.199L682.937 313.846L760.725 258.463L838.166 178.314L914.168 204.114L991.962 129.327" stroke="#4339F2" stroke-width="4" stroke-linecap="round"/>
<path d="M65.2463 449.377L142.596 399.174L219.759 351.729L296.477 375.57L373.912 335.073L451.571 281.728L528.425 228.934L605.593 240.607L683.654 258L760.825 250.325L838.004 242.649L914.168 235.466L991.962 193.663" stroke="#FF3A29" stroke-width="4" stroke-linecap="round"/>
<defs>
<clipPath id="clip0">
<rect width="886.205" height="13.0633" fill="white" transform="translate(64.5295 469.625)"/>
</clipPath>
</defs>
</svg>
